<svg xmlns="http://www.w3.org/2000/svg" width="246" height="14" viewBox="0 0 246 14">
  <g fill="#AAB7C4" fill-rule="evenodd">
    <path d="M156.310783 6.17760513L156.310783 5.13807685C156.310783 4.73825828 155.910965 4.33843971 155.511146 4.33843971L154.391654 4.33843971 154.391654 6.17760513 153.192199 6.17760513 153.192199.979963714 156.150856.979963714C156.870529.9 157.590203 1.37978228 157.670167 2.09945571L157.670167 2.49927428C157.670167 2.97905657 157.430275 3.45883885 156.950493 3.69872999 157.350312 3.93862114 157.590203 4.41840342 157.510239 4.89818571L157.510239 6.17760513 156.310783 6.17760513zM154.311691 3.138984L155.59111 3.138984C155.831001 3.21894771 156.150856 3.05902028 156.23082 2.81912914 156.310783 2.579238 156.150856 2.25938314 155.910965 2.17941943L154.311691 2.17941943 154.311691 3.138984zM171.343962 6.17760513L169.424832 2.65920171 169.424832 6.17760513 167.025921 6.17760513 166.626103 5.05811313 164.387119 5.05811313 163.9873 6.17760513 161.428461 6.17760513C161.428461 6.17760513 159.829187 5.93771399 159.829187 3.69872999 159.829187.979963714 161.18857.9 161.748316.9L163.267627.9 163.267627 2.09945571 162.068171 2.09945571C161.508425 2.17941943 161.108606 2.65920171 161.18857 3.21894771L161.18857 3.61876628C161.18857 5.37796799 163.267627 4.81822199 163.34759 4.81822199L164.866901.9 166.546139.9 168.385304 5.61785913 168.385304.979963714 170.064542.979963714 171.983671 4.41840342 171.983671.979963714 173.183127.979963714 173.183127 6.25756885 171.343962 6.17760513zM164.946865 3.77869371L166.14632 3.77869371 165.586574 2.25938314 164.946865 3.77869371zM146.795101 6.17760513L146.795101 2.579238 145.275791 6.17760513 144.316226 6.17760513 142.796916 2.579238 142.796916 6.17760513 140.398004 6.17760513 139.998186 5.05811313 137.759202 5.05811313 137.359383 6.17760513 136 6.17760513 137.999093.9 139.678331.9 141.517496 5.69782285 141.517496.979963714 143.436625.979963714 144.796009 4.25847599 146.155392.979963714 148.074521.979963714 148.074521 6.25756885 146.795101 6.17760513zM138.238984 3.77869371L139.43844 3.77869371 138.878694 2.25938314 138.238984 3.77869371zM148.714231 6.17760513L148.714231.979963714 152.472525.979963714 152.472525 2.17941943 149.913686 2.17941943 149.913686 2.97905657 152.392561 2.97905657 152.392561 4.17851228 149.913686 4.17851228 149.913686 5.05811313 152.472525 5.05811313 152.472525 6.17760513 148.714231 6.17760513zM158.149949 6.25756885L158.149949.979963714 159.349405.979963714 159.349405 6.25756885 158.149949 6.25756885zM160.788751 12.9745208L160.788751 11.9349925C160.788751 11.4552103 160.388933 11.1353554 159.909151 11.1353554L158.629731 11.1353554 158.629731 12.9745208 157.350312 12.9745208 157.350312 7.77687941 160.468897 7.77687941C161.268534 7.61695199 161.988207 8.17669798 162.068171 8.97633513L162.068171 9.29618998C162.068171 9.77597227 161.82828 10.2557546 161.348497 10.4956457 161.748316 10.7355368 161.988207 11.2153191 161.988207 11.6951014L161.988207 12.9745208 160.788751 12.9745208zM158.709695 9.93589969L160.069078 9.93589969C160.308969 10.0158634 160.628824 9.85593598 160.708788 9.61604484 160.788751 9.3761537 160.628824 9.05629884 160.388933 8.97633513 160.308969 8.89637141 160.149042 8.89637141 160.069078 8.97633513L158.709695 8.97633513 158.709695 9.93589969zM152.232634 12.9745208L151.113142 12.9745208 149.753759 11.4552103 148.394376 12.9745208 143.596553 12.9745208 143.596553 7.77687941 148.314412 7.77687941 149.753759 9.45611741 151.273069 7.77687941 155.351219 7.77687941C156.150856 7.6969157 156.870529 8.17669798 156.950493 8.97633513L156.950493 9.29618998C156.950493 10.8155005 156.390747 11.2952828 154.711509 11.2952828L153.43209 11.2952828 153.43209 12.9745208 152.232634 12.9745208zM150.63336 10.415682L152.232634 12.2548474 152.232634 8.65648027 150.63336 10.415682zM144.875972 11.8550288L147.594739 11.8550288 148.874158 10.415682 147.594739 8.97633513 144.875972 8.97633513 144.875972 9.77597227 147.514775 9.77597227 147.514775 10.975428 144.875972 10.975428 144.875972 11.8550288zM153.512053 9.93589969L154.871437 9.93589969C155.111328 10.0158634 155.431183 9.85593598 155.511146 9.61604484 155.59111 9.3761537 155.431183 9.05629884 155.191291 8.97633513 155.111328 8.89637141 154.9514 8.89637141 154.871437 8.97633513L153.512053 8.97633513 153.512053 9.93589969zM169.58476 12.9745208L167.265812 12.9745208 167.265812 11.7750651 169.264905 11.7750651C169.264905 11.7750651 169.984578 11.8550288 169.984578 11.3752465 169.984578 10.8954643 168.865086 10.975428 168.865086 10.975428 167.985486 11.1353554 167.265812 10.4956457 167.105885 9.69600855L167.105885 9.45611741C167.025921 8.65648027 167.665631 7.93680684 168.465268 7.85684313L171.184034 7.85684313 171.184034 8.97633513 169.184941 8.97633513C169.184941 8.97633513 168.465268 8.8164077 168.465268 9.3761537 168.465268 9.77597227 169.424832 9.77597227 169.424832 9.77597227 169.424832 9.77597227 171.423925 9.61604484 171.423925 11.2153191 171.503889 12.09492 170.944143 12.8945571 169.984578 13.0544845L169.664724 13.0544845 169.58476 12.9745208zM162.707881 12.9745208L162.707881 7.77687941 166.706066 7.77687941 166.706066 8.97633513 163.9873 8.97633513 163.9873 9.77597227 166.626103 9.77597227 166.626103 10.975428 163.9873 10.975428 163.9873 11.8550288 166.706066 11.8550288 166.706066 12.9745208 162.707881 12.9745208zM174.062728 12.9745208L171.74378 12.9745208 171.74378 11.7750651 173.742873 11.7750651C173.742873 11.7750651 174.462546 11.8550288 174.462546 11.3752465 174.462546 10.8954643 173.343054 10.975428 173.343054 10.975428 172.463454 11.1353554 171.74378 10.4956457 171.583853 9.61604484L171.583853 9.3761537C171.503889 8.57651655 172.143599 7.85684313 172.943236 7.77687941L175.662002 7.77687941 175.662002 8.97633513 173.662909 8.97633513C173.662909 8.97633513 172.943236 8.8164077 172.943236 9.3761537 172.943236 9.77597227 173.9028 9.77597227 173.9028 9.77597227 173.9028 9.77597227 175.901893 9.61604484 175.901893 11.2153191 175.981857 12.09492 175.422111 12.8945571 174.462546 13.0544845L174.142692 13.0544845C174.142692 12.9745208 174.142692 12.9745208 174.062728 12.9745208zM193.5 2L194 2C196.4 2.1 198.3 4.1 198.2 6.5 198.2 7.8 197.6 9 196.6 9.9 195.7 10.6 194.6 11 193.5 10.9L191 10.9 191 2 193.5 2zM195.5 8.7C196.1 8.1 196.4 7.3 196.4 6.4 196.4 5.6 196.1 4.8 195.5 4.2 194.9 3.7 194 3.4 193.2 3.5L192.7 3.5 192.7 9.4 193.2 9.4C194 9.5 194.9 9.2 195.5 8.7zM198.9 10.9L198.9 2 200.6 2 200.6 10.9 198.9 10.9zM204.7 5.4C206.7 6.2 207.2 6.8 207.3 8L207.3 8.3C207.2 9.9 205.9 11.1 204.3 11 203.1 11 201.9 10.4 201.3 9.3L202.4 8.2C202.7 8.9 203.4 9.4 204.2 9.4L204.3 9.4C204.9 9.4 205.5 8.8 205.5 8.1 205.5 7.7 205.3 7.4 205 7.2 204.6 7 204.2 6.8 203.8 6.7 202.2 6.2 201.7 5.5 201.7 4.3L201.7 4.2C201.8 2.8 203 1.7 204.4 1.8 205.3 1.8 206.2 2.2 206.9 2.8L206 4C205.6 3.6 205.1 3.3 204.6 3.3 204 3.2 203.5 3.7 203.4 4.3 203.4 4.8 203.7 5 204.7 5.4zM207.8 6.5C207.8 3.9 209.8 1.8 212.4 2 213.1 2 213.9 2.1 214.5 2.5L214.5 4.5C214 3.9 213.2 3.5 212.4 3.5 210.8 3.6 209.5 5 209.6 6.6L209.6 6.8C209.6 8.4 210.9 9.6 212.5 9.6 213.3 9.6 214 9.2 214.5 8.6L214.5 10.6C213.8 10.9 213.1 11.1 212.3 11.1 209.8 11.1 207.8 9 207.8 6.5zM228.1 8L230.5 2 232.3 2 228.6 11.1 227.7 11.1 224 2 225.8 2 228.1 8zM233.1 10.9L233.1 2 237.9 2 237.9 3.5 234.8 3.5 234.8 5.5 237.8 5.5 237.8 7 234.8 7 234.8 9.4 237.9 9.4 237.9 10.9 233.1 10.9zM244.6 4.6C244.7 5.9 243.8 7 242.6 7.2L245.3 10.9 243.2 10.9 240.9 7.3 240.7 7.3 240.7 10.9 239 10.9 239 2 241.5 2C243.5 2 244.6 2.9 244.6 4.6zM241.2 6.1C242.3 6.1 242.8 5.6 242.8 4.7 242.8 3.9 242.3 3.4 241.2 3.4L240.7 3.4 240.7 6.1 241.2 6.1zM219.7 1.9C222.3 1.9 224.3 4 224.4 6.6 224.3 9.2 222.3 11.3 219.7 11.2 217.1 11.1 215.1 9 215.1 6.5 215.1 3.9 217.2 1.9 219.7 1.9z"/>
    <g transform="translate(54 1)">
      <path d="M28.0761905,3.98809524 C27.597619,3.98809524 26.9595238,4.14761905 26.6404762,4.70595238 C26.4011905,4.30714286 25.922619,3.98809524 25.2845238,3.98809524 C24.8857143,3.98809524 24.4071429,4.06785714 24.0880952,4.54642857 L24.0880952,4.06785714 L23.2107143,4.06785714 L23.2107143,7.97619048 L24.0880952,7.97619048 L24.0880952,5.82261905 C24.0880952,5.18452381 24.5666667,4.78571429 25.125,4.78571429 C25.6833333,4.78571429 26.002381,5.18452381 26.002381,5.82261905 L26.002381,7.97619048 L26.8797619,7.97619048 L26.8797619,5.82261905 C26.8797619,5.18452381 27.3583333,4.78571429 27.9166667,4.78571429 C28.475,4.78571429 28.7940476,5.18452381 28.7940476,5.82261905 L28.7940476,7.97619048 L29.6714286,7.97619048 L29.6714286,5.58333333 C29.6714286,4.62619048 29.0333333,3.98809524 28.0761905,3.98809524 Z M33.5797619,4.62619048 C33.3404762,4.30714286 32.9416667,4.06785714 32.3833333,4.06785714 C31.2666667,4.06785714 30.4690476,4.9452381 30.4690476,6.14166667 C30.4690476,7.33809524 31.3464286,8.21547619 32.3833333,8.21547619 C32.9416667,8.21547619 33.3404762,7.97619048 33.5797619,7.65714286 L33.5797619,7.97619048 L34.4571429,7.97619048 L34.4571429,4.06785714 L33.5797619,4.06785714 L33.5797619,4.62619048 Z M32.4630952,7.33809524 C31.7452381,7.33809524 31.2666667,6.7797619 31.2666667,6.06190476 C31.2666667,5.34404762 31.7452381,4.78571429 32.4630952,4.78571429 C33.1809524,4.78571429 33.6595238,5.34404762 33.6595238,6.06190476 C33.6595238,6.7797619 33.1809524,7.33809524 32.4630952,7.33809524 Z M37.4083333,5.66309524 L37.0095238,5.58333333 C36.6904762,5.50357143 36.3714286,5.42380952 36.3714286,5.18452381 C36.3714286,4.9452381 36.6107143,4.70595238 37.0892857,4.70595238 C37.5678571,4.70595238 38.0464286,4.86547619 38.2857143,5.025 L38.6845238,4.38690476 C38.2857143,4.14761905 37.727381,3.98809524 37.0892857,3.98809524 C36.1321429,3.98809524 35.4940476,4.46666667 35.4940476,5.26428571 C35.4940476,5.90238095 35.972619,6.30119048 36.7702381,6.38095238 L37.1690476,6.46071429 C37.647619,6.54047619 37.8071429,6.7 37.8071429,6.85952381 C37.8071429,7.17857143 37.4880952,7.33809524 36.9297619,7.33809524 C36.2916667,7.33809524 35.8928571,7.17857143 35.6535714,6.93928571 L35.2547619,7.57738095 C35.8130952,7.97619048 36.5309524,8.05595238 36.9297619,8.05595238 C38.0464286,8.05595238 38.6845238,7.49761905 38.6845238,6.7797619 C38.7642857,6.14166667 38.2857143,5.82261905 37.4083333,5.66309524 Z M41.7154762,7.33809524 C41.3964286,7.33809524 41.077381,7.09880952 41.077381,6.6202381 L41.077381,4.9452381 L42.5928571,4.9452381 L42.5928571,4.14761905 L41.077381,4.14761905 L41.077381,2.95119048 L40.2,2.95119048 L40.2,4.14761905 L39.402381,4.14761905 L39.402381,4.9452381 L40.2,4.9452381 L40.2,6.6202381 C40.2,7.65714286 40.6785714,8.13571429 41.5559524,8.13571429 C42.0345238,8.13571429 42.4333333,7.97619048 42.752381,7.73690476 L42.4333333,7.01904762 C42.1940476,7.17857143 41.9547619,7.33809524 41.7154762,7.33809524 Z M45.225,3.98809524 C44.1083333,3.98809524 43.3107143,4.78571429 43.3107143,6.06190476 C43.3107143,7.33809524 44.1083333,8.13571429 45.3047619,8.13571429 C45.8630952,8.13571429 46.4214286,7.97619048 46.9,7.57738095 L46.5011905,6.93928571 C46.1821429,7.17857143 45.7833333,7.33809524 45.3845238,7.33809524 C44.8261905,7.33809524 44.347619,7.01904762 44.2678571,6.38095238 L47.1392857,6.38095238 L47.1392857,6.06190476 C47.0595238,4.86547619 46.3416667,3.98809524 45.225,3.98809524 Z M44.1880952,5.74285714 C44.2678571,5.18452381 44.5869048,4.78571429 45.225,4.78571429 C45.7833333,4.78571429 46.102381,5.1047619 46.1821429,5.74285714 L44.1880952,5.74285714 Z M48.8940476,4.54642857 L48.8940476,4.06785714 L48.0166667,4.06785714 L48.0166667,7.97619048 L48.8940476,7.97619048 L48.8940476,5.82261905 C48.8940476,5.18452381 49.2928571,4.78571429 49.8511905,4.78571429 C50.0904762,4.78571429 50.3297619,4.86547619 50.4892857,4.9452381 L50.7285714,4.06785714 C50.5690476,3.98809524 50.3297619,3.98809524 50.0904762,3.98809524 C49.5321429,3.98809524 49.1333333,4.14761905 48.8940476,4.54642857 Z M52.8821429,4.78571429 C53.2809524,4.78571429 53.5202381,4.9452381 53.8392857,5.18452381 L54.397619,4.62619048 C54.0785714,4.22738095 53.5202381,3.98809524 52.9619048,3.98809524 C51.7654762,3.98809524 50.8880952,4.86547619 50.8880952,6.06190476 C50.8880952,7.25833333 51.6857143,8.13571429 52.9619048,8.13571429 C53.5202381,8.13571429 54.0785714,7.89642857 54.397619,7.49761905 L53.8392857,6.93928571 C53.6,7.17857143 53.2809524,7.33809524 52.8821429,7.33809524 C52.2440476,7.33809524 51.7654762,6.85952381 51.7654762,6.06190476 C51.7654762,5.26428571 52.2440476,4.78571429 52.8821429,4.78571429 Z M57.9869048,4.62619048 C57.747619,4.30714286 57.3488095,4.06785714 56.7904762,4.06785714 C55.6738095,4.06785714 54.8761905,4.9452381 54.8761905,6.14166667 C54.8761905,7.33809524 55.7535714,8.21547619 56.7904762,8.21547619 C57.3488095,8.21547619 57.747619,7.97619048 57.9869048,7.65714286 L57.9869048,7.97619048 L58.8642857,7.97619048 L58.8642857,4.06785714 L57.9869048,4.06785714 C57.9869048,4.06785714 57.9869048,4.62619048 57.9869048,4.62619048 Z M56.8702381,7.33809524 C56.152381,7.33809524 55.6738095,6.7797619 55.6738095,6.06190476 C55.6738095,5.34404762 56.152381,4.78571429 56.8702381,4.78571429 C57.5880952,4.78571429 58.0666667,5.34404762 58.0666667,6.06190476 C58.0666667,6.7797619 57.5880952,7.33809524 56.8702381,7.33809524 Z M60.9380952,4.54642857 L60.9380952,4.06785714 L60.0607143,4.06785714 L60.0607143,7.97619048 L60.9380952,7.97619048 L60.9380952,5.82261905 C60.9380952,5.18452381 61.3369048,4.78571429 61.8952381,4.78571429 C62.1345238,4.78571429 62.3738095,4.86547619 62.5333333,4.9452381 L62.772619,4.06785714 C62.6130952,3.98809524 62.3738095,3.98809524 62.1345238,3.98809524 C61.5761905,3.98809524 61.177381,4.14761905 60.9380952,4.54642857 Z M66.0428571,2.15357143 L66.0428571,4.54642857 C65.8035714,4.22738095 65.4047619,3.98809524 64.8464286,3.98809524 C63.7297619,3.98809524 62.9321429,4.86547619 62.9321429,6.06190476 C62.9321429,7.25833333 63.8095238,8.13571429 64.8464286,8.13571429 C65.4047619,8.13571429 65.8035714,7.89642857 66.0428571,7.57738095 L66.0428571,7.97619048 L66.9202381,7.97619048 L66.9202381,2.15357143 C66.9202381,2.15357143 66.0428571,2.15357143 66.0428571,2.15357143 Z M64.9261905,7.33809524 C64.2083333,7.33809524 63.7297619,6.7797619 63.7297619,6.06190476 C63.7297619,5.34404762 64.2083333,4.78571429 64.9261905,4.78571429 C65.6440476,4.78571429 66.122619,5.34404762 66.122619,6.06190476 C66.122619,6.7797619 65.6440476,7.33809524 64.9261905,7.33809524 Z M7.33809524,6.06190476 C7.33809524,4.14761905 8.21547619,2.47261905 9.57142857,1.35595238 C8.53452381,0.558333333 7.25833333,0.0797619048 5.90238095,0.0797619048 C2.63214286,5.06109044e-13 0,2.71190476 0,6.06190476 C0,9.41190476 2.63214286,12.1238095 5.90238095,12.1238095 C7.25833333,12.1238095 8.53452381,11.6452381 9.57142857,10.847619 C8.21547619,9.65119048 7.33809524,7.97619048 7.33809524,6.06190476 Z"/>
      <path d="M13.2404762,0 C11.8845238,0 10.6083333,0.478571429 9.57142857,1.27619048 C10.927381,2.39285714 11.8047619,4.06785714 11.8047619,5.98214286 C11.8047619,7.89642857 10.927381,9.57142857 9.57142857,10.6880952 C10.6083333,11.4857143 11.8845238,11.9642857 13.2404762,11.9642857 C16.5107143,11.9642857 19.1428571,9.25238095 19.1428571,5.98214286 C19.1428571,2.71190476 16.5107143,0 13.2404762,0 Z" opacity=".5"/>
      <path d="M11.8047619,6.06190476 C11.8047619,4.14761905 10.927381,2.47261905 9.57142857,1.35595238 C8.21547619,2.47261905 6.54047619,4.14761905 6.54047619,6.06190476 C6.54047619,7.97619048 8.13571429,9.65119048 9.57142857,10.7678571 C10.927381,9.65119048 11.8047619,7.97619048 11.8047619,6.06190476 Z" opacity=".75"/>
    </g>
    <path d="M19.2144231,0.978365385 L16.6163462,13.0408654 L13.4615385,13.0408654 L16.0596154,0.978365385 L19.2144231,0.978365385 Z M32.2975962,8.77259615 L33.9677885,4.22596154 L34.8956731,8.77259615 L32.2975962,8.77259615 Z M35.8235577,13.0408654 L38.7,13.0408654 L36.1947115,0.978365385 L33.5038462,0.978365385 C32.9471154,0.978365385 32.3903846,1.34951923 32.2048077,1.90625 L27.5653846,13.0408654 L30.8129808,13.0408654 L31.4625,11.2778846 L35.4524038,11.2778846 C35.4524038,11.2778846 35.8235577,13.0408654 35.8235577,13.0408654 Z M27.6581731,9.05096154 C27.6581731,5.89615385 23.2971154,5.71057692 23.2971154,4.31875 C23.3899038,3.66923077 23.9466346,3.29807692 24.5961538,3.29807692 C25.6168269,3.20528846 26.7302885,3.39086538 27.6581731,3.85480769 L28.2149038,1.25673077 C27.2870192,0.885576923 26.2663462,0.7 25.3384615,0.7 C22.2764423,0.7 20.0495192,2.37019231 20.0495192,4.68990385 C20.0495192,6.45288462 21.6269231,7.38076923 22.7403846,7.9375 C23.9466346,8.49423077 24.4105769,8.86538462 24.3177885,9.42211538 C24.3177885,10.2572115 23.3899038,10.6283654 22.4620192,10.6283654 C21.3485577,10.6283654 20.2350962,10.35 19.2144231,9.88605769 L18.6576923,12.4841346 C19.7711538,12.9480769 20.9774038,13.1336538 22.0908654,13.1336538 C25.5240385,13.2264423 27.6581731,11.55625 27.6581731,9.05096154 Z M14.7605769,0.978365385 L9.75,13.0408654 L6.40961538,13.0408654 L3.90432692,3.39086538 C3.90432692,2.92692308 3.53317308,2.55576923 3.16201923,2.37019231 C2.23413462,1.90625 1.21346154,1.53509615 0.1,1.34951923 L0.192788462,0.978365385 L5.48173077,0.978365385 C6.22403846,0.978365385 6.78076923,1.53509615 6.87355769,2.18461538 L8.17259615,9.14375 L11.5129808,0.978365385 L14.7605769,0.978365385 Z"/>
  </g>
</svg>
